<?xml version="1.0" standalone="no"?>
<!DOCTYPE svg PUBLIC "-//W3C//DTD SVG 20010904//EN"
 "http://www.w3.org/TR/2001/REC-SVG-20010904/DTD/svg10.dtd">
<svg version="1.0" xmlns="http://www.w3.org/2000/svg"
 width="500.000000pt" height="500.000000pt" viewBox="0 0 500.000000 500.000000"
 preserveAspectRatio="xMidYMid meet">

<g transform="translate(0.000000,500.000000) scale(0.100000,-0.100000)"
fill="#000000" stroke="none">
<path d="M1164 2681 c-87 -22 -136 -82 -142 -176 -5 -82 11 -128 56 -163 31
-23 46 -27 118 -30 110 -5 166 18 194 80 45 99 7 228 -79 272 -35 18 -108 27
-147 17z m81 -121 c25 -28 32 -102 10 -123 -21 -21 -68 -22 -85 -2 -18 22 -7
115 16 132 24 18 38 16 59 -7z"/>
<path d="M1499 2683 l-56 -4 -6 -82 c-4 -45 -7 -128 -7 -185 l0 -103 73 3 72
3 0 70 0 70 45 0 c25 0 55 -4 68 -9 22 -7 23 -6 20 36 l-3 43 -55 0 c-63 1
-80 8 -80 35 0 39 94 38 143 0 14 -11 28 -20 31 -20 10 0 7 128 -3 134 -13 8
-175 14 -242 9z"/>
<path d="M1814 2683 l-42 -4 -6 -60 c-9 -76 -3 -85 38 -59 19 11 44 20 56 20
22 0 23 -1 14 -92 -4 -51 -8 -111 -8 -133 l-1 -40 75 0 75 0 -1 35 c0 19 -4
79 -9 133 l-8 97 25 0 c14 0 37 -9 51 -20 14 -11 28 -20 31 -20 3 0 6 31 6 69
l0 68 -67 6 c-69 7 -154 7 -229 0z"/>
<path d="M2235 2681 c-68 -17 -95 -45 -95 -99 0 -39 35 -69 112 -97 40 -14 64
-29 66 -40 9 -41 -62 -46 -134 -10 -26 13 -52 21 -56 17 -4 -4 -4 -33 -1 -65
7 -70 12 -72 165 -72 92 0 110 3 135 21 90 66 54 149 -81 188 -65 19 -86 40
-57 55 27 15 65 14 108 -4 19 -8 39 -15 44 -15 5 0 9 22 9 50 0 37 -4 52 -18
59 -25 13 -160 22 -197 12z"/>
<path d="M2525 2683 c-22 -3 -43 -10 -47 -16 -10 -16 -10 -127 0 -127 4 0 21
9 37 20 17 11 41 20 54 20 23 0 24 -2 18 -52 -4 -29 -9 -90 -13 -135 l-7 -83
76 0 c42 0 78 4 81 8 3 5 -1 62 -8 128 -8 65 -11 122 -9 127 8 13 48 7 73 -13
14 -11 28 -20 33 -20 4 0 7 31 7 69 l0 68 -67 6 c-70 7 -158 7 -228 0z"/>
<path d="M2959 2675 c-60 -19 -103 -67 -119 -134 -24 -100 11 -186 87 -217 47
-20 170 -18 213 4 56 28 80 73 80 152 0 51 -6 78 -23 111 -41 78 -144 114
-238 84z m101 -115 c23 -23 28 -108 8 -128 -21 -21 -66 -14 -84 13 -27 42 2
135 43 135 7 0 22 -9 33 -20z"/>
<path d="M3280 2681 c-25 -7 -25 -7 -34 -173 -5 -92 -6 -174 -2 -183 5 -13 19
-15 73 -13 l68 3 -4 73 c-3 60 -1 72 13 72 19 0 45 -48 54 -103 l7 -42 73 -3
c86 -3 93 5 67 73 -18 49 -55 83 -97 92 -37 7 -36 19 3 27 17 3 44 19 60 35
58 58 25 127 -68 142 -58 9 -179 10 -213 0z m169 -114 c15 -18 -5 -44 -41 -53
-27 -6 -28 -4 -28 30 0 33 2 36 29 36 16 0 34 -6 40 -13z"/>
<path d="M3694 2683 l-51 -4 -7 -91 c-3 -50 -6 -133 -6 -185 l0 -93 175 0 175
0 0 54 c0 30 -5 67 -10 81 l-10 26 -29 -29 c-52 -51 -153 -51 -159 0 -5 39 27
53 83 39 59 -15 57 -15 53 22 -3 30 -5 32 -38 30 -61 -5 -100 6 -100 26 0 36
62 41 129 11 24 -11 45 -20 47 -20 7 0 4 119 -3 123 -12 8 -193 15 -249 10z"/>
</g>
</svg>
